<svg xmlns="http://www.w3.org/2000/svg" viewBox="0 0 32 32">
  <defs>
    <linearGradient id="grad" x1="0%" y1="0%" x2="100%" y2="100%">
      <stop offset="0%" style="stop-color:#3B82F6;stop-opacity:1" />
      <stop offset="100%" style="stop-color:#8B5CF6;stop-opacity:1" />
    </linearGradient>
  </defs>
  
  <!-- Background Shape -->
  <rect x="0" y="0" width="32" height="32" rx="8" fill="url(#grad)" />
  
  <!-- Video Icon -->
  <path d="M23 10l-5 3.5V10a2 2 0 0 0-2-2H8a2 2 0 0 0-2 2v12a2 2 0 0 0 2 2h8a2 2 0 0 0 2-2v-3.5l5 3.5V10z" fill="white"/>
  
  <!-- Sparkle/Clean Effect -->
  <path d="M26 6l1 2 1-2 2-1-2-1-1-2-1 2-2 1 2 1z" fill="#FEF08A" />
</svg>
